<svg id="Capa_1" data-name="Capa 1" xmlns="http://www.w3.org/2000/svg" viewBox="0 0 1920 181.05"><defs><style>.cls-1{fill:#bc6c25;}</style></defs><g id="Capa_2" data-name="Capa 2"><path class="cls-1" d="M1920,9.33V180.72H0V34.3c22.08,3.57,41.59,12.87,64.66,13.83C98,49.52,125.11,33.5,156.78,27.35,228.68,13.41,299.7,52,375.59,54.06c72.77,2,138.75-29.83,211.48-27.34,33.47,1.15,64.68,9.52,97.15,14.26,123.54,18.08,252.54-17.17,379.78-12,43.83,1.77,87,8.33,130.89,8.35,58.65,0,116.17-11.6,174.76-10.06,47.85,1.24,93.86,11.25,141.62,13.32q3.11.14,6.19.23c15.66-4.51,31-9.31,45.77-14.59l1.35-.48c21.13-7.38,45.26-10.8,69.46-9.84A665.7,665.7,0,0,0,1752.74,10c33-4.7,66-11.95,100-10,21.21,1.24,41.09,6,61.84,8.68C1916.39,8.91,1918.19,9.13,1920,9.33Z" transform="translate(0 0.33)"/></g></svg>