<svg id="Capa_1" data-name="Capa 1" xmlns="http://www.w3.org/2000/svg" viewBox="0 0 50 50"><defs><style>.cls-1{fill:#fff;}</style></defs><path class="cls-1" d="M49.88,13.92C49.74,5.91,44.13.27,36.07.1,28.78,0,21.47,0,14.17.1c-4.22.11-8,1.45-10.9,4.81A13.11,13.11,0,0,0,.06,13.46C0,21.64-.08,29.84.34,38a12.31,12.31,0,0,0,11,11.61c4.43.57,9,.1,13.43.35h0c3.6,0,7.2.08,10.79,0,8.79-.22,14.21-5.55,14.37-14.3C50.05,28.4,50,21.16,49.88,13.92ZM45.6,35.29c-.13,6.37-3.61,10.13-9.94,10.29q-10.81.29-21.61,0c-6-.13-9.48-3.79-9.67-10.24q-.3-10.34,0-20.7C4.56,8.09,8,4.67,14.57,4.45q10.42-.32,20.87,0c6.52.17,10,3.89,10.11,10.44.05,3.44.05,6.89.05,10.32h0Z"/><path class="cls-1" d="M25,12.19a12.84,12.84,0,0,0,0,25.67A12.68,12.68,0,0,0,37.81,25.33v-.28A12.72,12.72,0,0,0,25.25,12.19Zm-.09,21.3A8.56,8.56,0,0,1,16.45,25,8.7,8.7,0,0,1,25,16.5a8.61,8.61,0,0,1,8.47,8.64,8.51,8.51,0,0,1-8.56,8.41Z"/><path class="cls-1" d="M41.31,11.5a2.9,2.9,0,1,1-5.79,0h0a2.9,2.9,0,1,1,5.79,0Z"/></svg>