<svg id="Capa_1" data-name="Capa 1" xmlns="http://www.w3.org/2000/svg" viewBox="0 0 50 50"><defs><style>.cls-1{fill:#fff;}</style></defs><path class="cls-1" d="M50,2.36A2.66,2.66,0,0,0,48.85.54a3.24,3.24,0,0,0-2-.53H2.73A2.73,2.73,0,0,0,0,2.65V47.42A2.73,2.73,0,0,0,2.54,50q.36,0,.72,0h25c6,.05,12,0,17.93,0h.73c.24,0,.49,0,.73-.06a2.67,2.67,0,0,0,2.31-2.31c0-.34,0-.69,0-1V3.43A6.37,6.37,0,0,0,50,2.36ZM42.22,14c0,.45-.14.63-.6.62H37.81c-2.32.11-3.3,1.12-3.31,3.45v4.36c0,.55.19.68.71.68h6c.71,0,.71,0,.62.74-.25,2.06-.53,4.13-.79,6.19,0,.44-.22.61-.68.61h-5c-.91,0-.91,0-.91.85V49.16c0,.81,0,.82-.8.82H27.37c-.54,0-.71-.2-.71-.72V31.44c0-.8,0-.8-.82-.8h-5c-.5,0-.71-.14-.71-.69q0-3.11,0-6.21c0-.52.19-.66.68-.65H26c.5,0,.63-.17.64-.65,0-2.12-.11-4.25.08-6.37a8.86,8.86,0,0,1,9.09-8.52,53.64,53.64,0,0,1,5.81.22c.41,0,.58.18.58.62C42.2,10.26,42.2,12.12,42.22,14Z" transform="translate(0 0)"/></svg>