<svg id="Capa_1" data-name="Capa 1" xmlns="http://www.w3.org/2000/svg" viewBox="0 0 1920 194"><defs><style>.cls-1{fill:#f4ebdf;}</style></defs><path class="cls-1" d="M0,193.4V120.89a225.82,225.82,0,0,0,42.43,9.86C94,137,146,140.6,197.66,146.43c36.44,4.11,72.51,12.54,109,14.52,26.25,1.42,53.16-3.27,79.35-7.68,40.5-6.8,82.17-11.46,120.57-24.68C566.49,108,626.78,92.65,690.19,88.87,799.74,82.34,909.11,76.47,1018.7,91c44.71,5.92,89.35,3.59,133.24-13.38,21-8.12,47.06-8.7,70-6,41.21,4.84,82.55,12.13,122.45,23.16,51.53,14.23,100.86,14.41,149-8.92,23.92-11.59,47.61-24.06,69.83-38.45l.37-.24a117.76,117.76,0,0,1,71.61-18.36,373.21,373.21,0,0,0,117.53-10.7c33-8.5,66-21.63,100-18.07,21.21,2.22,41.09,10.88,61.84,15.71q2.72.63,5.43,1.17V193.4Z" transform="translate(0 0.6)"/></svg>