<svg id="Capa_1" data-name="Capa 1" xmlns="http://www.w3.org/2000/svg" viewBox="0 0 55 55"><defs><style>.cls-1{fill:#fff;}</style></defs><path class="cls-1" d="M55,2.59a2.92,2.92,0,0,0-1.24-2A3.57,3.57,0,0,0,51.55,0H3A3,3,0,0,0,0,2.9C0,3.27,0,3.64,0,4V49.88c0,.74,0,1.48,0,2.21A3,3,0,0,0,2.79,54.9a7.13,7.13,0,0,0,.8,0c9.16,0,18.32,0,27.48,0,6.58.06,13.16,0,19.73,0h.8a7.18,7.18,0,0,0,.8-.06,2.94,2.94,0,0,0,2.54-2.54A9,9,0,0,0,55,51.17V3.76A7.64,7.64,0,0,0,55,2.59ZM46.46,15.36c0,.5-.15.7-.66.68-1.23,0-2.46,0-3.69,0h-.5c-2.55.13-3.63,1.23-3.65,3.79,0,1.59,0,3.19,0,4.79,0,.61.22.75.79.75,2.21,0,4.43,0,6.64,0,.78,0,.79,0,.69.81-.28,2.27-.59,4.54-.87,6.81-.06.48-.25.67-.75.67-1.84,0-3.68,0-5.52,0-1,0-1,0-1,.93V54c0,.89,0,.9-.88.9-2.31,0-4.63,0-6.94,0-.6,0-.78-.21-.78-.79,0-3.28,0-6.55,0-9.83V34.53c0-.87,0-.87-.9-.87-1.83,0-3.65,0-5.48,0-.56,0-.79-.16-.79-.76q.06-3.42,0-6.82c0-.58.21-.73.75-.72,1.91,0,3.82,0,5.72,0,.55,0,.7-.19.71-.71,0-2.33-.12-4.67.09-7,.5-5.61,4.33-9.21,10-9.36a59.15,59.15,0,0,1,6.39.24c.46,0,.64.2.64.68Q46.43,12.29,46.46,15.36Z"/></svg>