<svg id="Capa_1" data-name="Capa 1" xmlns="http://www.w3.org/2000/svg" viewBox="0 0 54 54"><defs><style>.cls-1{fill:#fff;}</style></defs><path class="cls-1" d="M53.62,14.8C53.47,6.15,47.41.06,38.71-.12c-7.88-.16-15.77-.13-23.66,0C10.49,0,6.38,1.44,3.28,5.07A14.2,14.2,0,0,0-.19,14.31C-.28,23.14-.34,32,.11,40.8A13.31,13.31,0,0,0,12,53.34c4.78.61,9.67.11,14.5.38,0-.17,0,.17,0,0,3.89,0,7.78.08,11.66,0,9.49-.24,15.34-6,15.52-15.45C53.8,30.44,53.76,22.62,53.62,14.8ZM49,37.88C48.86,44.76,45.1,48.82,38.26,49c-7.78.2-15.56.19-23.34,0C8.43,48.86,4.68,44.9,4.48,37.94q-.32-11.17,0-22.36c.19-7.07,3.9-10.77,11-11q11.27-.34,22.54,0c7.05.18,10.8,4.2,10.93,11.27C49,19.57,49,23.29,49,27h0C49,30.64,49,34.26,49,37.88Z"/><path class="cls-1" d="M26.73,12.94a13.86,13.86,0,1,0,0,27.72A13.69,13.69,0,0,0,40.58,26.82,13.72,13.72,0,0,0,26.73,12.94Zm-.1,23a9.25,9.25,0,0,1-9.12-9.19,9.4,9.4,0,0,1,9.22-9.16,9.3,9.3,0,0,1,9.15,9.33A9.18,9.18,0,0,1,26.63,36Z"/><path class="cls-1" d="M44.37,12.19a3.13,3.13,0,1,1-6.26,0,3.13,3.13,0,0,1,6.26,0Z"/></svg>