<svg xmlns="http://www.w3.org/2000/svg" viewBox="0 0 1920 310.01"><defs><style>.cls-1{fill:#bc6c25;}</style></defs><g id="Capa_2" data-name="Capa 2"><path class="cls-1" d="M1920,33.65V310H0V73.91c22.08,5.76,41.59,20.76,64.66,22.3,33.38,2.24,60.45-23.59,92.12-33.5,71.9-22.48,142.92,39.7,218.81,43.07C448.36,109,514.34,57.67,587.07,61.69c33.47,1.85,64.68,15.35,97.15,23C807.76,113.83,936.76,57,1064,65.25c43.83,2.85,87,13.43,130.89,13.46,58.65.05,116.17-18.7,174.76-16.22,47.85,2,93.86,18.14,141.62,21.49,2.07.14,4.13.27,6.19.36,15.66-7.26,31-15,45.77-23.52l1.35-.77a125.1,125.1,0,0,1,69.46-15.87,416.67,416.67,0,0,0,118.7-9.47c33-7.57,66-19.27,100-16.1,21.21,2,41.09,9.7,61.84,14Q1917.29,33.16,1920,33.65Z"/></g></svg>