<svg id="Capa_1" data-name="Capa 1" xmlns="http://www.w3.org/2000/svg" viewBox="0 0 1920 193.96"><defs><style>.cls-1{fill:#bc6d23;}</style></defs><path class="cls-1" d="M0,194V121.49a225.32,225.32,0,0,0,42.43,9.86C94,137.6,146,141.2,197.66,147c36.44,4.11,72.51,12.54,109,14.52,26.25,1.42,53.16-3.27,79.35-7.68,40.5-6.8,82.17-11.46,120.57-24.68,59.91-20.59,120.2-35.94,183.61-39.72,109.55-6.53,218.92-12.4,328.51,2.13,44.71,5.92,89.35,3.59,133.24-13.38,21-8.12,47.06-8.7,70-6,41.21,4.84,82.55,12.13,122.45,23.16,51.53,14.23,100.86,14.41,149-8.92C1517.31,74.87,1541,62.4,1563.22,48l.37-.24a117.72,117.72,0,0,1,71.61-18.36,373.1,373.1,0,0,0,117.53-10.7c33-8.5,66-21.63,100-18.07,21.21,2.22,41.09,10.88,61.84,15.71q2.72.63,5.43,1.17V194Z" transform="translate(0 -0.04)"/></svg>