<svg id="Capa_1" data-name="Capa 1" xmlns="http://www.w3.org/2000/svg" viewBox="0 0 58.17 43.48"><title>Sin título-1</title><path d="M58.17,16.08l-.33,1.22c-.21.78-.57,1.09-1.28,1.09H52c-.18,0-.36,0-.67,0a3.62,3.62,0,0,0,.35.3,3.1,3.1,0,0,1,1.66,3q0,10,0,20c0,1.17-.56,1.77-1.6,1.77h-6c-1.17,0-1.7-.58-1.7-1.91,0-2,0-4,0-6v-.74h-30v6.71c0,1.41-.51,2-1.76,2H6.51c-1.21,0-1.72-.58-1.73-1.95q0-9.72,0-19.43a3.41,3.41,0,0,1,1.77-3.42s.08-.08.12-.12,0,0,0-.12a4.55,4.55,0,0,0-.53,0H1.66c-.79,0-1.11-.3-1.36-1.15a6.49,6.49,0,0,1,0-3.9c.25-.85.55-1.14,1.35-1.14H6.48c.86,0,1.19.29,1.43,1.22,0,.2.11.4.19.72C9,11.26,9.9,8.49,10.79,5.72c.25-.8.51-1.61.77-2.41C12.28,1.13,13.71,0,15.77,0H42.18c2.35,0,3.71,1.08,4.5,3.57l3.37,10.55c.11-.37.19-.64.26-.91a1.17,1.17,0,0,1,1.16-1h5.17c.65,0,1,.33,1.19,1.05.12.42.23.85.34,1.28ZM46.26,18.41c-1.36-4.25-2.68-8.41-4-12.56a.64.64,0,0,0-.51-.32c-8.43,0-16.86,0-25.29,0-.35,0-.48.14-.59.5q-1.11,3.54-2.25,7.06c-.56,1.77-1.13,3.53-1.71,5.35ZM14,22.77c-.89,0-1.78,0-2.67,0a2.38,2.38,0,0,0-2.11,3.16,2.15,2.15,0,0,0,2.18,1.67c1.74,0,3.48,0,5.22,0a2.34,2.34,0,0,0,.83-.15,2.39,2.39,0,0,0,1.42-2.55,2.27,2.27,0,0,0-2.15-2.12C15.78,22.74,14.87,22.77,14,22.77Zm30.19,4.82h0c1,0,1.89.05,2.84,0a2.27,2.27,0,0,0,2.08-2.39,2.28,2.28,0,0,0-2-2.39q-2.86-.11-5.73,0a2.24,2.24,0,0,0-2,2.4,2.23,2.23,0,0,0,2,2.37C42.27,27.64,43.22,27.59,44.16,27.59Z"/></svg>