<svg id="Capa_1" data-name="Capa 1" xmlns="http://www.w3.org/2000/svg" viewBox="0 0 69 61.41"><defs><style>.cls-1{fill:#3f4021;}</style></defs><path class="cls-1" d="M69,55.8a11.07,11.07,0,0,0-2-4.69,51.69,51.69,0,0,0-5.52-6.83A44.17,44.17,0,0,1,56.66,38c-.73-1.14-1.42-2.34-2.26-3.41-1.36-1.72-2.72-3.42-4.1-5.1a23,23,0,0,0-1.87-2.19c-.68-.66-1.16-.63-1.75.12a5.59,5.59,0,0,0-.82,1.42c-.31.78-.63,1.58-1,2.36a19,19,0,0,1-3.54,5.45,11.57,11.57,0,0,1-2.81,2.5c-.22.12-.5.41-.73.18s0-.54.15-.78a25.42,25.42,0,0,1,1.82-2.77,33,33,0,0,0,4-6.77,7.69,7.69,0,0,0,.68-4.33,10.33,10.33,0,0,0-1.8-4.66c-.65-.85-1.39-1.61-2.12-2.39-2-2.19-1.85-4.42-2.43-7.13A30.77,30.77,0,0,0,34.8,1.9a3.51,3.51,0,0,0-2-1.88,3.28,3.28,0,0,0-2.35.63C26.59,3,23.81,6.87,21.75,10.94s-3.53,8.41-5.49,12.53c-.78,1.65-1.67,3.38-1.45,5.2.1,1,.5,1.87.65,2.82.4,2.36-.73,4.73-2.23,6.6S9.82,41.48,8.3,43.35a46.47,46.47,0,0,1-3.64,4.79C3.81,49,2.8,49.73,2,50.62.06,52.69-.74,56,.84,58.37A6.67,6.67,0,0,0,6,61c.57.06,5.72-.79,5.73-.77a8.82,8.82,0,0,1-.55-8.46A15.47,15.47,0,0,1,17,45.28a71.57,71.57,0,0,1,7.91-4.13,4.57,4.57,0,0,0,2.19-1.71c.82-1.53-.29-3.44-1.7-4.46s-3.14-1.62-4.33-2.91c-2.26-2.38-1.56-6.09.44-8.39S26.29,20.3,29,19.2c-2,2.76-6.18,4.5-6,7.92.21,5,8.83,5,10.65,9.67,1.47,3.92-2.74,7.49-6.49,9.33s-8.28,4.52-7.84,8.65a6.61,6.61,0,0,0,4.11,5A19.36,19.36,0,0,0,30,61c5.45.38,10.93.73,16.36-.08,5.09-.79,10.19-2.68,15.35-2.1C66.4,59.33,69.2,58.58,69,55.8ZM30.59,30.92Z"/></svg>