<svg id="Capa_1" data-name="Capa 1" xmlns="http://www.w3.org/2000/svg" viewBox="0 0 20.21 18.06"><defs><style>.cls-1{fill:#f4ebdf;}</style></defs><path class="cls-1" d="M20.22,16.36A3.11,3.11,0,0,0,19.64,15,15.72,15.72,0,0,0,18,13a12,12,0,0,1-1.41-1.84c-.21-.34-.43-.68-.67-1-.39-.51-.79-1-1.2-1.5A6.66,6.66,0,0,0,14.19,8c-.2-.19-.34-.18-.51,0a1.52,1.52,0,0,0-.24.41c-.09.23-.18.47-.29.7a5.61,5.61,0,0,1-1,1.59,3.4,3.4,0,0,1-.82.74c-.07,0-.15.12-.22,0s0-.16,0-.23a7,7,0,0,1,.53-.81,9.78,9.78,0,0,0,1.17-2A2.25,2.25,0,0,0,13,7.23a2.92,2.92,0,0,0-.53-1.36,8.17,8.17,0,0,0-.62-.7,3.75,3.75,0,0,1-.71-2.09,8.73,8.73,0,0,0-1-2.52A1,1,0,0,0,9.61,0a1,1,0,0,0-.69.18,7.34,7.34,0,0,0-2.55,3c-.6,1.19-1,2.46-1.6,3.67A2.84,2.84,0,0,0,4.34,8.4a5.57,5.57,0,0,0,.19.83,2.48,2.48,0,0,1-.65,1.93c-.44.55-1,1-1.45,1.55a13.19,13.19,0,0,1-1.06,1.4c-.25.25-.55.47-.78.73a1.87,1.87,0,0,0-.34,2.27,2,2,0,0,0,1.51.77c.17,0,1.67-.23,1.68-.23a2.55,2.55,0,0,1-.16-2.48A4.52,4.52,0,0,1,5,13.27a21.89,21.89,0,0,1,2.3-1.21,1.27,1.27,0,0,0,.64-.5,1.1,1.1,0,0,0-.5-1.31A7.14,7.14,0,0,1,6.18,9.4,1.85,1.85,0,0,1,6.3,6.94,5.54,5.54,0,0,1,8.5,5.63C7.91,6.44,6.69,7,6.74,8c.06,1.46,2.59,1.46,3.12,2.83C10.29,12,9.06,13,8,13.57s-2.43,1.32-2.3,2.53a2,2,0,0,0,1.21,1.47,5.68,5.68,0,0,0,1.92.36,22.65,22.65,0,0,0,4.8,0,16.73,16.73,0,0,1,4.5-.62C19.46,17.39,20.28,17.17,20.22,16.36Z" transform="translate(-0.01 0.01)"/></svg>