<svg id="Capa_1" data-name="Capa 1" xmlns="http://www.w3.org/2000/svg" viewBox="0 0 58.17 43.52"><defs><style>.cls-1{fill:#3f4021;}</style></defs><title>auto</title><path class="cls-1" d="M58.17,16.08l-.33,1.22c-.21.78-.57,1.09-1.28,1.09H51.33a3.27,3.27,0,0,0,.35.3A3.08,3.08,0,0,1,53,19.94a3,3,0,0,1,.38,1.75v20c0,1.17-.56,1.77-1.6,1.77h-6c-1.17,0-1.7-.58-1.7-1.91V34.81H14v6.71c0,1.41-.51,2-1.76,2H6.51c-1.21,0-1.72-.58-1.73-2V22.14a3.44,3.44,0,0,1,1.77-3.42l.12-.12s0,0,0-.12a4.69,4.69,0,0,0-.53,0H1.66c-.79,0-1.11-.3-1.36-1.15a6.49,6.49,0,0,1,0-3.9c.25-.85.55-1.14,1.35-1.14H6.48c.86,0,1.19.29,1.43,1.22a3.89,3.89,0,0,0,.19.72c.9-3,1.8-5.74,2.69-8.51.25-.8.51-1.61.77-2.41C12.28,1.13,13.71,0,15.77,0H42.18c2.35,0,3.71,1.08,4.5,3.57l3.37,10.55c.11-.37.19-.64.26-.91a1.2,1.2,0,0,1,.39-.72,1.22,1.22,0,0,1,.77-.28h5.17c.65,0,1,.33,1.19,1,.12.42.23.85.34,1.28ZM46.26,18.41c-1.36-4.25-2.68-8.41-4-12.56A.58.58,0,0,0,42,5.63a.59.59,0,0,0-.29-.1H16.46c-.35,0-.48.14-.59.5q-1.11,3.54-2.25,7.06c-.56,1.77-1.13,3.53-1.71,5.35ZM14,22.77H11.33a2.36,2.36,0,0,0-1.84,1.05,2.26,2.26,0,0,0-.38,1,2.34,2.34,0,0,0,.11,1.08A2.15,2.15,0,0,0,10,27.16a2.18,2.18,0,0,0,1.39.44h5.22a2.34,2.34,0,0,0,2.25-2.7,2.31,2.31,0,0,0-.67-1.47,2.28,2.28,0,0,0-1.48-.65C15.78,22.74,14.87,22.77,14,22.77Zm30.19,4.82c1,0,1.89.05,2.84,0a2.26,2.26,0,0,0,2.08-2.39,2.28,2.28,0,0,0-2-2.39q-2.86-.11-5.73,0a2.29,2.29,0,0,0-1.49.79,2.24,2.24,0,0,0-.51,1.61,2.23,2.23,0,0,0,2,2.37c.89.06,1.84,0,2.78,0Z"/></svg>