<svg id="Capa_1" data-name="Capa 1" xmlns="http://www.w3.org/2000/svg" viewBox="0 0 58.17 54"><title>Sin título-1</title><path d="M37.39,47.79H20.77c0,.71,0,1.4,0,2.08A4.09,4.09,0,0,1,16.66,54a15.8,15.8,0,0,1-3.16-.15,4,4,0,0,1-3.11-4c0-1.24,0-2.47,0-3.7a1.21,1.21,0,0,0-.36-.81,10.42,10.42,0,0,1-3.78-8.25c0-6.56,0-13.11,0-19.67v-.84c-.29,0-.54,0-.79,0-.87,0-1.28.4-1.28,1.27,0,1.62,0,3.25,0,4.87a2,2,0,0,1-2.07,2.16A2.06,2.06,0,0,1,0,22.75V17.63a5.18,5.18,0,0,1,5.15-5.17H6.23V10.34A10.36,10.36,0,0,1,16.59,0h25A10.36,10.36,0,0,1,51.93,10.35v2.11h1a5.15,5.15,0,0,1,5.27,5.3c0,1.67,0,3.33,0,5a2.08,2.08,0,1,1-4.15,0V18.27c0-1.38-.3-1.68-1.67-1.65l-.41,0v.76c0,6.6,0,13.2,0,19.8a10.2,10.2,0,0,1-3.71,8.08,1.19,1.19,0,0,0-.46,1c0,1.19,0,2.38,0,3.57A4.1,4.1,0,0,1,43.64,54a15.89,15.89,0,0,1-3.09-.14,4,4,0,0,1-3.16-4ZM29.11,8.31H14.71a4.15,4.15,0,0,0-4.31,4.15c0,3.81,0,7.62,0,11.42a4,4,0,0,0,3.45,4c3.32.38,6.65.81,10,1A99.27,99.27,0,0,0,43.62,28c2.87-.41,4.16-1.91,4.16-4.8V12.91a4.22,4.22,0,0,0-4.59-4.6ZM12.47,38.44a3.11,3.11,0,1,0,3.08-3.13A3.18,3.18,0,0,0,12.47,38.44Zm27,0a3.12,3.12,0,1,0,3.07-3.14A3.18,3.18,0,0,0,39.47,38.45Z"/></svg>