<svg id="Capa_1" data-name="Capa 1" xmlns="http://www.w3.org/2000/svg" viewBox="0 0 58.21 54.02"><defs><style>.cls-1{fill:#3f4021;}</style></defs><title>micro</title><path class="cls-1" d="M37.39,47.79H20.77v2.08a4.07,4.07,0,0,1-.3,1.58,4,4,0,0,1-2.23,2.24,4.08,4.08,0,0,1-1.58.31,15.22,15.22,0,0,1-3.16-.15,4,4,0,0,1-3.11-4v-3.7a1.17,1.17,0,0,0-.36-.81,10.46,10.46,0,0,1-3.78-8.25V16.58H5.46a1.11,1.11,0,0,0-1.28,1.27v4.87a1.94,1.94,0,0,1-.11.83,1.92,1.92,0,0,1-.44.72,2.06,2.06,0,0,1-.69.47,2.13,2.13,0,0,1-.83.14,1.93,1.93,0,0,1-.82-.15,1.9,1.9,0,0,1-.69-.46,2,2,0,0,1-.46-.7A2.08,2.08,0,0,1,0,22.75V17.63a5.17,5.17,0,0,1,5.15-5.17H6.23V10.34A10.36,10.36,0,0,1,16.59,0h25A10.36,10.36,0,0,1,51.93,10.35v2.11h1a5.06,5.06,0,0,1,2,.37A5.18,5.18,0,0,1,56.71,14a5,5,0,0,1,1.13,1.73,5.13,5.13,0,0,1,.36,2.05v5a2.19,2.19,0,0,1-.11.84,2.22,2.22,0,0,1-.44.72,2.07,2.07,0,0,1-.69.49,2,2,0,0,1-.83.17,2.05,2.05,0,0,1-1.52-.66,1.92,1.92,0,0,1-.44-.72,2,2,0,0,1-.12-.84V18.27c0-1.38-.3-1.68-1.67-1.65H52V37.18a10.2,10.2,0,0,1-3.71,8.08,1.24,1.24,0,0,0-.35.44,1.22,1.22,0,0,0-.11.56v3.57a4.15,4.15,0,0,1-1.2,3,4.1,4.1,0,0,1-1.35.9,4,4,0,0,1-1.61.3,16,16,0,0,1-3.09-.14,4,4,0,0,1-2.3-1.43,4,4,0,0,1-.86-2.57ZM29.11,8.31H14.71a4.15,4.15,0,0,0-3,1.16,4.12,4.12,0,0,0-1.27,3V23.88a4,4,0,0,0,1,2.65,4,4,0,0,0,2.48,1.35c3.32.38,6.65.81,10,1A99,99,0,0,0,43.62,28c2.87-.41,4.16-1.91,4.16-4.8V12.91a4.26,4.26,0,0,0-1.21-3.38,4.19,4.19,0,0,0-3.38-1.22ZM12.47,38.44a3.11,3.11,0,0,0,1.94,2.86,3.1,3.1,0,0,0,4-4.1,3.11,3.11,0,0,0-1.16-1.38,3,3,0,0,0-1.73-.51,3.23,3.23,0,0,0-2.17.95A3.17,3.17,0,0,0,12.47,38.44Zm27,0a3.12,3.12,0,0,0,3.76,3,3.05,3.05,0,0,0,1.59-.87A3.1,3.1,0,0,0,45.66,39a3.12,3.12,0,0,0-1.37-3.19,3.1,3.1,0,0,0-1.75-.5,3.18,3.18,0,0,0-3.07,3.15Z"/></svg>