<svg id="Capa_1" data-name="Capa 1" xmlns="http://www.w3.org/2000/svg" viewBox="0 0 45 54"><defs><style>.cls-1{fill:#3f4021;}</style></defs><title>ubicacion</title><path class="cls-1" d="M24,.05a22.81,22.81,0,0,1,17.6,9.87,20.41,20.41,0,0,1,2.56,5.43A19.7,19.7,0,0,1,42.7,30.21a20.81,20.81,0,0,1-3.27,4.6c-.16.18-3.64,4.4-7.72,9.36-4.45,5.41-7.53,9.12-7.69,9.26a2.31,2.31,0,0,1-3,0c-.16-.14-3.24-3.85-7.68-9.26-4.08-5-7.56-9.18-7.73-9.36a20.81,20.81,0,0,1-3.27-4.6,19.65,19.65,0,0,1-.84-16.66,21.41,21.41,0,0,1,8.7-10.11A23.85,23.85,0,0,1,24,.05Zm-2.7,10.16a9.41,9.41,0,0,0-2.91.81,8.84,8.84,0,0,0-5.14,6.2,5.57,5.57,0,0,0-.13,1.65,6.65,6.65,0,0,0,.33,2.5A9.06,9.06,0,0,0,18.94,27a9.67,9.67,0,0,0,2.87.63A9.9,9.9,0,0,0,26.06,27a9.06,9.06,0,0,0,5.47-5.65,6.64,6.64,0,0,0,.34-2.5,5.84,5.84,0,0,0-.14-1.65,8.86,8.86,0,0,0-4.08-5.65,10.77,10.77,0,0,0-3.08-1.22A10.79,10.79,0,0,0,21.32,10.21Z"/></svg>