<svg id="Capa_1" data-name="Capa 1" xmlns="http://www.w3.org/2000/svg" viewBox="0 0 1921 870.85"><defs><style>.cls-1{fill:#3f4021;}.cls-2{fill:#f4ebdf;}</style></defs><rect class="cls-1" x="-10.59" y="-19.91" width="1956.26" height="890.77"/><path class="cls-2" d="M1920,898.43V825.92a226.88,226.88,0,0,1-42.43,9.86C1826,842,1774,845.63,1722.34,851.46c-36.44,4.11-72.51,12.54-109,14.52-26.25,1.42-53.16-3.27-79.35-7.68-40.5-6.8-82.17-11.46-120.57-24.68-59.91-20.59-120.2-35.94-183.61-39.72-109.55-6.53-218.92-12.4-328.51,2.13C856.59,802,812,799.62,768.06,782.65c-21-8.12-47.06-8.7-70-6-41.21,4.84-82.55,12.13-122.45,23.16-51.53,14.23-100.86,14.41-149-8.92-23.92-11.59-47.61-24.06-69.83-38.45l-.37-.24a117.72,117.72,0,0,0-71.61-18.36,373.4,373.4,0,0,1-117.53-10.7c-33-8.5-66-21.63-100-18.07C46.06,707.29,26.18,716,5.43,720.78Q2.72,721.41,0,722V898.43Z"/></svg>