<svg id="Capa_1" data-name="Capa 1" xmlns="http://www.w3.org/2000/svg" viewBox="0 0 30 22.48"><defs><style>.cls-1{fill:#bc6c23;}</style></defs><path class="cls-1" d="M14.87,22.48c-3.29,0-6.57,0-9.86,0S.06,20.71,0,17.62Q0,11.2,0,4.78A4.57,4.57,0,0,1,4.81,0Q14.94,0,25.05,0A4.58,4.58,0,0,1,30,4.82q.08,6.51,0,13a4.48,4.48,0,0,1-4.69,4.64C21.79,22.52,18.33,22.48,14.87,22.48Zm5.41-11.24C22,9.45,24.05,7.41,26,5.31c.32-.35.34-1,.5-1.46-.54.11-1.25,0-1.6.35-2.24,2.08-4.39,4.24-6.59,6.36-1.07,1-2.17,2.07-3.77,3.6-2.43-2.66-4.7-5.2-7-7.69A28,28,0,0,0,4.84,3.94C4.57,3.71,4,3.8,3.62,3.75a4.73,4.73,0,0,0,.19,1.37c.15.35.56.58.85.87l5.61,5.6c-2.08,2-4,3.74-5.89,5.62-.42.41-.45,1.21-.65,1.83a5.35,5.35,0,0,0,1.74-.67c2-1.81,4-3.72,6-5.56,1.25,1.06,2.4,2.78,3.46,2.72,1.21-.06,2.33-1.71,3.49-2.66a1.54,1.54,0,0,1,.24-.08c2,1.91,4,3.88,6.12,5.76.37.34,1.07.31,1.62.45a4.57,4.57,0,0,0-.53-1.6C24,15.32,22.16,13.3,20.28,11.24Z"/></svg>