<svg id="Capa_1" data-name="Capa 1" xmlns="http://www.w3.org/2000/svg" viewBox="0 0 30 34.76"><defs><style>.cls-1{fill:#bc6c23;}</style></defs><path class="cls-1" d="M20.38,34.76c-3.16-.11-6.63-2-9.72-4.67C5.06,25.23,1.21,19.31.15,11.85-.42,7.83.6,4.23,3.91,1.6A7.72,7.72,0,0,1,6.74.25c2.69-.68,3.72,0,4.4,2.66.5,1.94.93,3.89,1.5,5.8.33,1.12.24,2-.88,2.49-1.43.67-1.45,1.68-1,3.05a19.22,19.22,0,0,0,6.35,8.92c1,.77,1.75.87,2.61,0,1.18-1.17,2.26-1,3.57-.09a51.5,51.5,0,0,0,5.35,3.41c1.45.8,1.56,1.85,1.1,3.24C28.73,32.83,25.46,34.82,20.38,34.76Z"/></svg>