<svg id="Capa_1" data-name="Capa 1" xmlns="http://www.w3.org/2000/svg" viewBox="0 0 1800 700"><defs><style>.cls-1{fill:#bc6c23;fill-opacity:0.15;}.cls-2{fill:none;}</style></defs><path class="cls-1" d="M0,31.67V516.61c4.15-.38,8.34-.77,12.56-1.14,96.1-8.57,180.05-17.35,220.78-12.56,53.92,6.33,101.53,10.72,164.16,47.42,45,26.35,76.09,47.81,110.78,64.54,26,12.49,76.92,32.29,142.05,50.75,31.84,9,68,15,114,23.34,55.45,10.07,126.82,13,188.61,9.82,47.4-2.42,103.54-6.25,138.3-15.52,36.33-9.69,128.59-33.18,180.67-72.12,55.39-41.44,75.83-53.54,123.79-60.14,119.74-16.47,169.27-11.07,201-17.47,53.26-10.75,97.4-19,145.75-45.36,31.74-17.31,58-33.53,57.58-53.07-.74-34.3-8.74-54.92-15.48-78-4.47-15.27-16.64-36.08-19.93-54.48-3.67-20.5-8-38.3-24.4-67-14.8-25.85-20.87-82.57-53.9-111.72-26.15-23.07-71.4-55.75-182.41-75.8-73.08-13.21-187.43-28.92-306.95-39.06C1139.6,4.22,1114.63,0,1080.18,0c-99-.06-152.48.18-204.9,4-93.84,6.86-168,11.33-220.26,14-19.93,1-113.52.58-243.84,5.69-69.12,2.7-95.58,7.25-159.53,7.48C125.46,31.64,33.89,31.68,0,31.67Z"/><line class="cls-2" x1="1770.32" y1="483.98" x2="1770.32" y2="94.01"/></svg>