<svg id="Capa_1" data-name="Capa 1" xmlns="http://www.w3.org/2000/svg" viewBox="0 0 1470.32 570"><defs><style>.cls-1{fill:#bc6c23;fill-opacity:0.15;}.cls-2{fill:none;}</style></defs><path class="cls-1" d="M0,27.56V422.44l8.37-.93c64.07-7,120-14.12,147.19-10.22C191.51,416.44,223.25,420,265,449.9c30,21.45,50.73,38.93,73.86,52.55,17.29,10.18,51.27,26.3,94.69,41.32,21.23,7.36,45.36,12.21,76,19,37,8.2,84.54,10.58,125.73,8,31.6-2,69-5.09,92.2-12.64,24.23-7.89,85.73-27,120.45-58.73,36.93-33.74,50.55-43.59,82.53-49,79.83-13.4,112.85-9,134-14.22,35.51-8.75,64.94-15.48,97.17-36.93,21.16-14.1,38.67-27.31,38.39-43.22-.5-27.93-5.83-44.72-10.33-63.5-3-12.44-11.09-29.38-13.28-44.36-2.45-16.69-5.33-31.19-16.27-54.53-9.87-21.05-13.92-67.24-35.94-91-17.43-18.79-47.59-45.4-121.6-61.73C953.86,30.22,877.63,17.43,798,9.17c-38.22-4-54.86-7.37-77.83-7.39-66-.05-101.65.15-136.6,3.27-62.56,5.58-112,9.22-146.84,11.41-13.29.83-75.68.48-162.56,4.64C228,23.3,210.4,27,167.77,27.19,83.64,27.54,22.59,27.57,0,27.56Z" transform="translate(0 -1.77)"/><line class="cls-2" x1="1470.32" y1="418.98" x2="1470.32" y2="29.01"/></svg>